<?xml version="1.0" encoding="UTF-8"?>
<!DOCTYPE svg PUBLIC "-//W3C//DTD SVG 1.1//EN" "http://www.w3.org/Graphics/SVG/1.1/DTD/svg11.dtd">
<!-- Creator: CorelDRAW 2021 (64-Bit) -->
<svg xmlns="http://www.w3.org/2000/svg" xml:space="preserve" width="310.5mm" height="170mm" version="1.1" style="shape-rendering:geometricPrecision; text-rendering:geometricPrecision; image-rendering:optimizeQuality; fill-rule:evenodd; clip-rule:evenodd"
viewBox="0 0 31050 17000"
 xmlns:xlink="http://www.w3.org/1999/xlink"
 xmlns:xodm="http://www.corel.com/coreldraw/odm/2003">
 <defs>
  <style type="text/css">
   <![CDATA[
    .fil0 {fill:#606060}
   ]]>
  </style>
 </defs>
 <g id="Capa_x0020_1">
  <metadata id="CorelCorpID_0Corel-Layer"/>
  <g id="_1886853766144">
   <path class="fil0" d="M21948.33 9035.47l-2813.73 0c-93.97,0 -37.63,-156.8 -13.83,-247.74 74.14,-283.34 260.34,-557.18 492.38,-732.16 98.99,-74.65 216.57,-143.79 333.15,-189.69 203.1,-80 368.54,-104.74 584.82,-116.92 70.73,-3.98 251.09,15.65 317.48,26.56 230.96,37.95 492.46,141.96 667.84,295.28 120.6,105.41 199.41,189.06 283.54,328.75 98.57,163.62 154.66,322.01 185.77,515.96 3.9,24.32 26.32,119.96 -37.42,119.96zm-4320.34 570.98c0,609.18 141.3,1159.87 412.41,1630.81 23.27,40.43 44.43,76.36 70.52,115.23 111.74,166.59 132.43,186.12 238.4,318.86l185.1 193.24c19.48,17.17 28.67,21.41 48.14,41.3 20.54,21.04 30.98,26.63 51.44,44.88 99.11,88.28 208.6,164.7 320.39,236.84 39.37,25.42 73.41,46.6 115.94,69.83 249.38,136.17 529.36,255.81 807.83,313.52 368.19,76.32 474.4,83.13 852.49,83.13 173.87,0 350.01,-20.25 505.23,-45.16 333.74,-53.51 645.79,-148.55 946.35,-298.83 183.33,-91.65 434.22,-250.91 576.06,-393.94l106.87 -99.52c15.49,-16.11 16.98,-22.14 30.87,-37.92l65.71 -71.88c152.19,-181.13 279.63,-381.04 367.41,-602.59 31.37,-79.19 129.86,-266.35 8.84,-266.35l-1286.47 0c-54.66,0 -72.06,67.59 -116.98,130.7 -118.66,166.64 -229.49,258.8 -401.88,361.72 -382.41,228.29 -1080.8,263.84 -1494.53,69.38 -136.15,-63.97 -234.37,-115.77 -350.33,-206.89 -106.03,-83.35 -196.31,-180.13 -277.05,-287.1 -90.24,-119.52 -206.93,-340.61 -251.13,-491.84 -123.9,-423.81 -81.13,-360.24 167.61,-360.24l4066.17 0.41c48.87,-0.07 82.17,-15.85 82.17,-62.31 0,-351.89 5.38,-612.55 -57.94,-960.24 -101.4,-556.85 -272.68,-963.05 -616.19,-1406.37 -77.46,-99.97 -264.92,-286.91 -364.62,-364.62 -128.11,-99.81 -181.78,-141.5 -323.76,-226.57 -415.14,-248.78 -959.36,-399.4 -1444.33,-399.4 -319.48,0 -505.5,8.18 -810.47,83.86 -97.15,24.12 -186.41,52.4 -280.76,83.82 -245.1,81.67 -516.4,220.86 -724.93,368.94 -791.82,562.24 -1224.58,1431.48 -1224.58,2435.3z"/>
   <path class="fil0" d="M12509.64 9654.61c0,-258.93 28.15,-543.96 117.95,-783.26 44.65,-119.01 71.44,-175.3 129.72,-283.04 94.86,-175.42 227.7,-320.6 380.51,-445.05 79.56,-64.81 160.9,-107.47 256.97,-155.79 393.94,-198.04 959.48,-194.87 1341.53,-2.29 49.44,24.93 82.82,42.69 129.1,70.42 80.58,48.25 109.02,74.33 179.89,129.69 80.76,63.1 230.59,237.03 284.65,327.62 76.31,127.88 111.28,188.25 169.39,339.69 128.62,335.15 164.31,839.24 90.55,1213.04 -11.61,58.86 -21.88,109.88 -36.76,169.61 -7.96,32 -14.21,54.65 -22.53,80.67 -58.81,183.69 -69.82,204.08 -152.25,363.71 -130.77,253.27 -363.38,485.04 -623.68,614.63 -416.31,207.3 -944.83,207.5 -1359.87,-0.02 -98.41,-49.2 -175.52,-96.79 -256.97,-162.69 -22.87,-18.5 -34.46,-27.39 -55.4,-47.79 -81.67,-79.49 -59.16,-46.87 -155.27,-161.19 -276.92,-329.33 -417.53,-808.34 -417.53,-1267.96zm1668.11 2999.49l-203.17 0c-227.49,-6.24 -452.43,-33.25 -655.89,-79.82 -483.77,-110.75 -858.85,-292.71 -1236.48,-593.47 -73.35,-58.45 -150.27,-138.35 -192.77,-171.85l-176.93 -194.57c-92.53,-117.19 -190.39,-242.27 -264.44,-375.36 -153.25,-275.46 -261.28,-533.64 -332.06,-858.09 -77.63,-355.88 -78.58,-513.95 -78.58,-870.78 0,-223.57 38.34,-464.52 82.62,-646.61 106.45,-437.7 261.3,-763.93 529.58,-1114.64 11.84,-15.45 26.21,-34.02 39.83,-49.6 15.7,-17.97 24.94,-31.92 41.01,-48.41 19.11,-19.63 24.41,-28.75 41.4,-48.04l134.1 -134.19c64.47,-64.49 121.75,-114.19 192.48,-172.14 68.14,-55.85 138.64,-104.21 211.69,-152.92l169.87 -105.32c267.33,-149.45 549.06,-261.19 856.84,-326.43 654.5,-138.73 1293.03,-95.39 1918.59,128.17 156.06,55.79 243.32,106.4 382.14,175.11 68.41,33.85 166.26,98.05 230.64,140.85 170.66,113.46 383.69,295.31 516.62,453.38 121.82,144.88 138.38,163.36 260.77,344.62l101.86 173.31c202.36,408.03 287.95,678.31 338.21,1147.79l19.47 345.14c0,119.51 -13.78,245.47 -20.64,357.71 -17.19,281.81 -123.45,648.54 -221.12,893.37 -134.25,336.5 -354.82,662.91 -592.37,900.49 -32.98,32.97 -62.41,65.1 -96.23,96.39 -19.85,18.34 -31.19,23.88 -51.65,44.68 -49.72,50.53 -199.14,158.36 -258.23,202.69 -285.01,213.75 -691.26,371.68 -1036.8,456.05 -201.46,49.18 -424.42,76.28 -650.36,82.49z"/>
   <path class="fil0" d="M23516.84 6840.91l0 956.25c0,24.69 13.36,47.79 31.81,57.63 43.03,22.97 562.06,11.16 621.76,11.16 30.89,0 289.3,-5.88 311.89,4.55 9.3,4.3 18.96,16.58 22.12,26.05 6.87,20.57 8.3,3900.16 2.9,4537.57 -0.61,70.76 13.43,103.02 82.73,103.02l1231.43 0c89.7,0 83.06,-56.44 82.65,-103.11l-0.1 -4396.1c0,-54.79 -12.36,-139.97 21.85,-163.89 25.83,-18.07 515.96,-8.09 569.79,-8.09l577.91 0.03c64.15,0.25 130.68,1.37 130.68,-61.95l0 -976.88c0,-60.39 -50.05,-62.36 -110.01,-61.97l-1066.38 0.04c-63.71,0.1 -123.84,9.75 -123.84,-55.03l0 -488.44c0,-371.84 149.98,-574.9 503.18,-611.31l115.76 -8.08c121.13,-3.6 346.72,14.43 481.96,13.82 47.97,-0.2 133.47,18.49 170.19,-1.47 12.64,-6.85 29.14,-23.05 29.14,-39.63l0 -997.54c0,-86.88 -111.7,-53.93 -191.62,-62.9 -162.99,-18.33 -331.55,-10.45 -496.6,-12.48 -42.72,-0.53 -71.95,-7.29 -123.55,-7.18 -277.65,0.64 -445.46,4.05 -713.61,50.04 -124.58,21.38 -370.73,93.44 -480.53,159.26 -117.03,70.17 -126.15,70.63 -231.98,160.15l-82.36 75.88c-17.02,17.67 -20.62,26.95 -37.7,44.85 -150.45,157.73 -255.3,443.91 -295.7,660.54 -56.1,300.79 -43.11,594.73 -43.11,913.14 0,198.61 23.65,207.02 -110.05,206.41l-791.5 -0.35c-60.46,0.23 -89.11,16.2 -89.11,76.01z"/>
   <path class="fil0" d="M7178.03 6834.01l0 949.39c0,82.83 56.75,82.87 137.57,82.58l681.09 -0.03c176.26,0 151.35,-39.7 151.35,302.7l0 2717.38c0,424.36 19.86,768.76 234.19,1127.99 248.86,417.07 813.86,529.99 1286.18,529.99l550.36 0c132.27,0 244.07,-7.33 371.52,-6.87 37.44,0.15 225.82,-6.46 266.71,-15.32 24.56,-5.34 42.85,-20.76 42.85,-53.47l0 -1004.41c0,-68 -155.76,-48.16 -213.27,-48.16 -205.85,0 -607.47,11.85 -766.38,-24.77 -147.16,-33.91 -244.08,-109.97 -292.19,-237.54 -48.49,-128.55 -62.79,-291.44 -62.79,-466.92l0 -2765.57c0,-67.63 59.19,-55.07 123.82,-55.03l1087.01 0.05c62.03,0.36 123.8,-1.18 123.8,-61.97l0 -976.88c0,-63.46 -54.74,-62.22 -116.94,-61.93l-1080.11 0c-69.08,0.03 -129,13.94 -137.19,-48.54l-0.2 -1258.75c0.7,-75.4 -13.92,-96.12 -89.62,-96.12l-1245.2 0c-109.53,0 -82.55,88.65 -82.55,227.03 0,359.99 6.13,755.08 0.45,1108.02 -1.06,64.93 -25.56,69.16 -89.7,68.56l-791.65 -0.52c-48.1,0.19 -89.11,13.39 -89.11,69.11z"/>
   <path class="fil0" d="M27974.77 4577.54l0 7897.68c0,49.05 39.97,61.92 89.44,61.92l1245.18 0c61.5,0 96.32,-21.08 96.32,-82.55l0 -7856.42c0,-33.09 -18.87,-75.66 -48.16,-75.66l-1327.74 0c-33.28,0 -55.04,21.76 -55.04,55.03z"/>
   <path class="fil0" d="M3242.96 5409.97c-34.1,-22.85 -886.54,-883.1 -985.5,-982.04 -168.79,-168.81 -112.35,-157.53 -365.49,-73.13l-393.81 129.04c-90.56,30.19 -160.82,35.79 -160.82,107.47 0,40.83 124,148.08 156.5,180.6l856.49 856.49c50.86,50.86 321.11,314.08 342.26,345.68l-1499.73 0c-134.14,-0.17 -102.35,-15.41 -240.78,261.44 -36.69,73.38 -73.4,146.75 -110.07,220.14 -61.84,123.76 -137.64,208.53 -93.9,272.74 9.59,14.09 19.77,19.11 37.37,24.56 43.75,13.56 1837.16,5.39 1900.23,5.39 -23.66,35.34 -888.49,891.94 -988.93,992.38 -171.55,171.55 -151.66,108.96 -69.64,355.13 21.29,63.86 41.15,130.32 63.63,197.79 10.96,32.83 99.11,320.53 116.14,337.93 66.56,67.95 134.41,-27.8 182.25,-75.64l3666.78 -3666.76c77.13,-76.86 56.92,-83.81 -7.76,-277.75 -22.65,-67.93 -43.69,-131.7 -65.34,-196.07 -12.28,-36.46 -94.83,-316.12 -115.76,-338.29 -69.37,-73.43 -147.33,40.69 -234.23,127.58l-1031.93 1031.94c-41.54,41.53 -133.2,143.15 -173.7,170.26l0 -1492.84c0.07,-127.36 16.02,-105.5 -144.47,-185.77l-220.2 -110.03c-75.27,-37.31 -288.35,-165.13 -350.8,-165.13 -88.69,0 -68.79,125.52 -68.79,178.84l0 1768.05z"/>
   <path class="fil0" d="M3242.96 7893.46l0 963.15c0,45.85 21.6,67.32 52.61,84.95 79.58,45.27 194.3,89.21 278.94,140.73 33.65,20.51 360.91,187.07 377.03,187.07 34.33,0 64.68,-22.19 73,-50.82 8.61,-29.69 2.68,-1863.35 2.68,-1909.82 35.5,23.75 943.78,940.3 1071.49,1068.04 85.52,85.56 63.17,70.62 282.89,-2.6 65.01,-21.67 126.45,-43.8 197.48,-63.94l294.67 -97.48c158.65,-53.52 -9.73,-178.27 -87.11,-255.63 -118.24,-118.24 -1169.45,-1160.18 -1195.31,-1198.76 149.48,0 1528.04,8.96 1571.66,-3.74 42.42,-12.39 58.36,-64.19 77.14,-101.73l295.56 -578.73c15.36,-43.9 -6.35,-100.07 -59.37,-100.07l-1327.74 0c-37.63,0 -90.95,66.86 -129,104.93 -574.34,574.33 -1156.74,1165.88 -1733.65,1733.61 -24.88,24.48 -42.97,33.42 -42.97,80.84z"/>
   <path class="fil0" d="M30100.53 12186.29c0,-72.84 34.58,-138.03 67.6,-180.07 60.08,-76.53 136.31,-88.24 221.35,-88.24 122.89,0 240.78,131.26 240.78,254.54 0,83.97 -16.7,144.36 -73.81,201.37 -84.79,84.62 -202.1,105.53 -306.57,55.17 -83.95,-40.47 -149.35,-141.1 -149.35,-242.77zm-82.54 6.86c0,40.08 17.43,103.13 30.2,134.92 78.57,195.68 377.44,288.08 549.5,114.56 30.49,-30.74 55.55,-54.38 77.97,-94.01 35.46,-62.64 37.07,-120.55 37.15,-189.99l0 -6.74c0,-242.68 -354.92,-446.61 -589.95,-211.57 -59.24,59.23 -104.87,137.92 -104.87,252.83z"/>
   <path class="fil0" d="M30361.96 12165.65l-48.16 0 0 -89.44 82.55 0c19.53,0 34.4,23.74 34.4,41.28 0,39.04 -30.95,48.16 -68.79,48.16zm-130.72 199.48l82.56 0 0 -130.69 55.03 0c11.71,50.25 50.67,82.44 61.92,130.69l96.31 0c-9.56,-41.06 -65.86,-109.28 -75.67,-151.35 101.48,-27.1 85.2,-206.37 -41.27,-206.37l-178.88 0 0 357.72z"/>
  </g>
 </g>
</svg>
