<?xml version="1.0" encoding="UTF-8"?>
<!DOCTYPE svg PUBLIC "-//W3C//DTD SVG 1.1//EN" "http://www.w3.org/Graphics/SVG/1.1/DTD/svg11.dtd">
<!-- Creator: CorelDRAW 2021 (64-Bit) -->
<svg xmlns="http://www.w3.org/2000/svg" xml:space="preserve" width="297mm" height="210mm" version="1.1" style="shape-rendering:geometricPrecision; text-rendering:geometricPrecision; image-rendering:optimizeQuality; fill-rule:evenodd; clip-rule:evenodd"
viewBox="4200 7800 21000 9000"
 xmlns:xlink="http://www.w3.org/1999/xlink"
 xmlns:xodm="http://www.corel.com/coreldraw/odm/2003">
 <defs>
  <style type="text/css">
   <![CDATA[
    .fil0 {fill:#606060}
    .fil1 {fill:#F8F9F9}
   ]]>
  </style>
 </defs>
 <g id="Capa_x0020_1">
  <metadata id="CorelCorpID_0Corel-Layer"/>
  <g id="_2458344911856">
   <path class="fil0" d="M16111.89 11585.71c125.65,-1053.8 1713.71,-1087.86 1819.35,0.32l-1819.35 -0.32zm2671.38 625.7c84.77,-27.07 64.56,-92.88 61.83,-201.97 -9.6,-383.95 -72.53,-730.12 -250.7,-1051.5 -538.86,-971.99 -1968.71,-1183.03 -2840.13,-340.23 -341.01,329.81 -584.42,880.59 -515.16,1558.32 173.31,1696.09 2124.37,2073.62 3168.51,1189.19 101.39,-85.87 385.64,-426.6 380.48,-659.43l-844.82 7.09c-151.25,166.36 -183.27,269.03 -440.41,357.97 -612.93,212 -1297.95,-109.61 -1383.67,-856.52l2664.07 -2.92z"/>
   <path class="fil0" d="M12857.59 10876.62c1368.22,-334.92 1626.06,1922.96 454.27,2183.89 -660.28,147.03 -1078.88,-309.74 -1170.6,-860.51 -110.56,-663.92 185.43,-1193.43 716.33,-1323.38zm-1645.21 1178.88c45.88,1051.62 851.9,1825.47 1965.25,1773.12 2457.21,-115.55 2361.87,-3851.62 -188.9,-3725.02 -1055.18,52.37 -1824.83,840.88 -1776.35,1951.9z"/>
   <path class="fil0" d="M23095.39 12468.87c-59.22,22.89 -59.1,89.4 -92.93,162.48 -323.52,698.99 -1654.78,663.61 -1684.49,-646.14 -31.05,-1369.55 1390.69,-1376.84 1692.36,-677.77 47.61,110.31 15.05,142.88 120.61,160.63l787.82 -10.6c40.81,-179.68 -123.13,-497.38 -203.42,-619.69 -363.49,-553.81 -1087.07,-828.86 -1787.37,-710.26 -2058.29,348.57 -2006.45,3392.66 11.82,3682.03 830.27,119.03 1638.26,-273.2 1919.2,-1026.73l53.01 -293.27c-0.72,-9.81 -4.09,-12.64 -7.6,-18.2l-809.01 -2.48z"/>
   <path class="fil0" d="M9343.53 10174.4c-134.48,21.88 -557.73,-45.73 -595.89,55.41 -26.56,70.41 -10.13,549.16 7.19,611.18 144.57,62.39 407.15,4.97 586.92,26.22 80.41,2525.94 -443.81,2993.04 1693.79,2875.21 16.36,-161.4 31.13,-534.04 -7.31,-664.71 -404.34,-117.46 -808,225.04 -808,-482.23l2.35 -1733.76 810.33 -14.27 9.01 -552.69c0,-116.35 -0.3,-111.04 -115.43,-113.9l-706.26 1.7 -10.94 -818.31c-26.76,-110.26 -734.28,-62.44 -841.01,-42.92 -49.56,94.84 -24.75,737.21 -24.75,853.07z"/>
   <path class="fil0" d="M5016.18 8845.67c72.25,174.8 624.21,620.05 823.03,874.65l-972.51 6.63c-58.86,61.43 -230.87,389.23 -212.57,443.68l72.68 31.5c79.14,16.33 919.4,-17.91 1114.69,9.93 -136.04,103.16 -368.46,365.88 -506.63,503.89 -234.42,234.15 -201.34,107.87 -33.18,664.49 122.18,-31.13 1117.6,-1076.1 1226.36,-1185.11l891.61 -892.62c87.93,-87.94 218.04,-199.16 292.66,-299.19 -34.81,-139.39 -79.2,-377.48 -169.26,-461.6 -199.31,54.39 -653.67,710.6 -867.26,821.05l-8.83 -986.8c-69.24,-44.3 -387.51,-208.21 -444.22,-204.79 -3.06,6.1 -5.7,14.18 -7.09,19.19 -27.48,98.88 -15.4,-49.17 -18.31,130.97 -4.88,302.59 18.34,784.49 -2.72,1047.36 -173.98,-154.77 -339.53,-333.18 -509.26,-503.23 -93.71,-93.88 -139.76,-207.09 -290.34,-158.43 -108.53,35.06 -302.52,91.82 -378.85,138.43z"/>
   <path class="fil0" d="M20044 10189.7c-162.71,-18.25 -381.97,-5.49 -551.29,-5.94 -327.12,-0.86 -306.65,-67.67 -303.64,251.63 9.35,993.18 -49.04,2445.45 4.02,3317.77l869.02 -2.63c19.77,-348.37 28.66,-3446.09 -18.11,-3560.83z"/>
   <path class="fil0" d="M8012.19 10194.82c48.42,-62.95 207.49,-371.72 215.21,-467.04 -164.86,-15.93 -818.64,-46.99 -922.37,47.08 -164.96,149.59 -321.4,321.85 -482.04,480.63 -167.04,165.1 -316.1,314.27 -484.06,478.51 -128.21,125.38 -143.15,87.09 -140.47,335.12 1.72,159.79 -2.45,319.76 3.3,479.43 88.12,37.95 373.93,205 472.04,191.27l8.64 -1188.76 696.28 682.53 383.66 -108.55c22.14,-8.51 29.13,-11.23 49.51,-22.64 37.81,-21.17 18.57,-8.26 43.45,-32.92 -38.99,-107.22 -315.33,-352.8 -406.59,-445.71 -135.97,-138.44 -274.81,-294.19 -413.17,-424.98l976.61 -3.97z"/>
   <path class="fil0" d="M19183.38 9609.17l779.86 8.92c56.93,-5.82 -11.09,5.87 42.86,-6.61 45.45,-10.53 30.83,-5.85 55.71,-21.91l10.57 -773.25 -438.76 -27.71c-145.92,0 -297.08,-10.88 -441.42,7.96l-8.82 812.6z"/>
   <path class="fil1" d="M24526.28 13378.16c0,15.81 1.81,80.8 -0.44,90.46 -15.4,66.43 20.75,34.89 -37.97,59.32 -110.65,46.03 -61.11,-220.34 -61.11,-444.05 545.86,-46.49 321.22,212.89 285.73,288.18l84.09 159.51c-263.32,8.43 -60.99,-180.84 -270.3,-153.42zm2.8 -410.02c-477.66,127.79 -272.94,803.1 168.8,678.84 411.03,-115.63 259.1,-793.31 -168.8,-678.84z"/>
   <path class="fil0" d="M24529.08 12968.14c427.9,-114.47 579.83,563.21 168.8,678.84 -441.74,124.26 -646.46,-551.05 -168.8,-678.84zm-352.89 472.49c174.41,544.97 1018.78,317.78 847.07,-271.8 -58.73,-201.67 -293.22,-358.87 -547.98,-286.84 -194.35,54.93 -390.11,274.22 -299.09,558.64z"/>
   <path class="fil0" d="M24676.26 13252.82c-68.72,44.73 -69.42,34.98 -150.16,17.41l1.1 -100.91c120.29,-19.57 148.96,-25.09 149.06,83.5zm-149.98 125.34c209.31,-27.42 6.98,161.85 270.3,153.42l-84.09 -159.51c35.49,-75.29 260.13,-334.67 -285.73,-288.18 0,223.71 -49.54,490.08 61.11,444.05 58.72,-24.43 22.57,7.11 37.97,-59.32 2.25,-9.66 0.44,-74.65 0.44,-90.46z"/>
   <path class="fil1" d="M24526.1 13270.23c80.74,17.57 81.44,27.32 150.16,-17.41 -0.1,-108.59 -28.77,-103.07 -149.06,-83.5l-1.1 100.91z"/>
  </g>
 </g>
</svg>
